<svg xmlns="http://www.w3.org/2000/svg" viewBox="0 0 400 100">
  <rect x="0" y="0" width="300" height="100" rx="20" ry="20" fill="#f8f8f8" stroke="#e0e0e0" stroke-width="2" />
  <text x="30" y="65" font-family="Arial, sans-serif" font-weight="700" font-size="45" fill="url(#wiseGradient)">Wise</text>
  <text x="140" y="65" font-family="Arial, sans-serif" font-weight="700" font-size="45" fill="#6b46c1">Jobs</text>
  <g transform="translate(280, 35) scale(0.8)">
    <path d="M0,0 C0,-15 15,-25 25,-15 C35,-25 50,-15 50,0 C50,15 40,20 40,25 L10,25 C10,20 0,15 0,0" fill="#ffda44" stroke="#333" stroke-width="2" />
    <rect x="15" y="25" width="20" height="5" rx="2" fill="#e6c430" stroke="#333" stroke-width="1.5" />
    <rect x="20" y="30" width="10" height="5" rx="2" fill="#e6c430" stroke="#333" stroke-width="1.5" />
  </g>
  <defs>
    <linearGradient id="wiseGradient" x1="0%" y1="0%" x2="100%" y2="0%">
      <stop offset="0%" stop-color="#3182ce" />
      <stop offset="100%" stop-color="#9f7aea" />
    </linearGradient>
  </defs>
  <path d="M20,80 Q150,110 280,80" fill="none" stroke="#9f7aea" stroke-width="3" stroke-linecap="round" />
</svg>
